REM DIRINDEX 1\2,1\3,1\4,1\5
REM DIRNAME cjc046,folder01,folder02,folder03,folder04
TITLE ""
FILE "098.mp3" MP3
  TRACK 01 AUDIO
    TITLE "0:"
    INDEX 01 00:00:00
  TRACK 02 AUDIO
    TITLE "2:cjc046_2114"
    INDEX 01 00:00:07
  TRACK 03 AUDIO
    TITLE "0:"
    INDEX 01 00:01:13
  TRACK 04 AUDIO
    TITLE "3:cjc046_2115"
    INDEX 01 00:01:38
  TRACK 05 AUDIO
    TITLE "0:"
    INDEX 01 00:02:61
  TRACK 06 AUDIO
    TITLE "4:cjc046_2116"
    INDEX 01 00:02:67
  TRACK 07 AUDIO
    TITLE "0:"
    INDEX 01 00:03:72
  TRACK 08 AUDIO
    TITLE "2:cjc046_2117"
    INDEX 01 00:05:05
  TRACK 09 AUDIO
    TITLE "0:"
    INDEX 01 00:06:04
  TRACK 10 AUDIO
    TITLE "3:cjc046_2118"
    INDEX 01 00:06:31
  TRACK 11 AUDIO
    TITLE "0:"
    INDEX 01 00:07:27
  TRACK 12 AUDIO
    TITLE "4:cjc046_2119"
    INDEX 01 00:07:39
  TRACK 13 AUDIO
    TITLE "0:"
    INDEX 01 00:08:38
  TRACK 14 AUDIO
    TITLE "2:cjc046_2120"
    INDEX 01 00:09:47
  TRACK 15 AUDIO
    TITLE "0:"
    INDEX 01 00:10:51
  TRACK 16 AUDIO
    TITLE "3:cjc046_2121"
    INDEX 01 00:11:03
  TRACK 17 AUDIO
    TITLE "0:"
    INDEX 01 00:12:30
  TRACK 18 AUDIO
    TITLE "4:cjc046_2122"
    INDEX 01 00:12:46
  TRACK 19 AUDIO
    TITLE "0:"
    INDEX 01 00:13:49
  TRACK 20 AUDIO
    TITLE "2:cjc046_2123"
    INDEX 01 00:14:58
  TRACK 21 AUDIO
    TITLE "0:"
    INDEX 01 00:15:66
  TRACK 22 AUDIO
    TITLE "3:cjc046_2124"
    INDEX 01 00:16:20
  TRACK 23 AUDIO
    TITLE "0:"
    INDEX 01 00:17:35
  TRACK 24 AUDIO
    TITLE "4:cjc046_2125"
    INDEX 01 00:17:51
  TRACK 25 AUDIO
    TITLE "0:"
    INDEX 01 00:18:60
  TRACK 26 AUDIO
    TITLE "2:cjc046_2126"
    INDEX 01 00:19:67
  TRACK 27 AUDIO
    TITLE "0:"
    INDEX 01 00:21:04
  TRACK 28 AUDIO
    TITLE "3:cjc046_2127"
    INDEX 01 00:21:25
  TRACK 29 AUDIO
    TITLE "0:"
    INDEX 01 00:22:56
  TRACK 30 AUDIO
    TITLE "4:cjc046_2128"
    INDEX 01 00:22:66
  TRACK 31 AUDIO
    TITLE "0:"
    INDEX 01 00:24:02
  TRACK 32 AUDIO
    TITLE "2:cjc046_2129"
    INDEX 01 00:25:15
  TRACK 33 AUDIO
    TITLE "0:"
    INDEX 01 00:26:20
  TRACK 34 AUDIO
    TITLE "3:cjc046_2130"
    INDEX 01 00:26:46
  TRACK 35 AUDIO
    TITLE "0:"
    INDEX 01 00:27:65
  TRACK 36 AUDIO
    TITLE "4:cjc046_2131"
    INDEX 01 00:28:00
  TRACK 37 AUDIO
    TITLE "0:"
    INDEX 01 00:29:05
  TRACK 38 AUDIO
    TITLE "2:cjc046_2132"
    INDEX 01 00:30:08
  TRACK 39 AUDIO
    TITLE "0:"
    INDEX 01 00:31:08
  TRACK 40 AUDIO
    TITLE "3:cjc046_2133"
    INDEX 01 00:31:35
  TRACK 41 AUDIO
    TITLE "0:"
    INDEX 01 00:32:27
  TRACK 42 AUDIO
    TITLE "4:cjc046_2134"
    INDEX 01 00:32:39
  TRACK 43 AUDIO
    TITLE "0:"
    INDEX 01 00:33:40
  TRACK 44 AUDIO
    TITLE "2:cjc046_2135"
    INDEX 01 00:34:49
  TRACK 45 AUDIO
    TITLE "0:"
    INDEX 01 00:35:57
  TRACK 46 AUDIO
    TITLE "3:cjc046_2136"
    INDEX 01 00:36:05
  TRACK 47 AUDIO
    TITLE "0:"
    INDEX 01 00:36:74
  TRACK 48 AUDIO
    TITLE "4:cjc046_2137"
    INDEX 01 00:37:10
  TRACK 49 AUDIO
    TITLE "0:"
    INDEX 01 00:38:16
  TRACK 50 AUDIO
    TITLE "2:cjc046_2138"
    INDEX 01 00:39:27
  TRACK 51 AUDIO
    TITLE "0:"
    INDEX 01 00:40:26
  TRACK 52 AUDIO
    TITLE "3:cjc046_2139"
    INDEX 01 00:40:52
  TRACK 53 AUDIO
    TITLE "0:"
    INDEX 01 00:41:57
  TRACK 54 AUDIO
    TITLE "4:cjc046_2140"
    INDEX 01 00:41:73
  TRACK 55 AUDIO
    TITLE "0:"
    INDEX 01 00:42:72
  TRACK 56 AUDIO
    TITLE "2:cjc046_2141"
    INDEX 01 00:44:05
  TRACK 57 AUDIO
    TITLE "0:"
    INDEX 01 00:45:06
  TRACK 58 AUDIO
    TITLE "3:cjc046_2142"
    INDEX 01 00:45:24
  TRACK 59 AUDIO
    TITLE "0:"
    INDEX 01 00:46:39
  TRACK 60 AUDIO
    TITLE "4:cjc046_2143"
    INDEX 01 00:46:43
  TRACK 61 AUDIO
    TITLE "0:"
    INDEX 01 00:47:44
